<svg width="30" height="26" viewBox="0 0 30 26" fill="none" xmlns="http://www.w3.org/2000/svg">
<path d="M15 14.0832C14.6194 14.0793 14.2466 14.1766 13.9318 14.3619C13.617 14.5472 13.3752 14.8117 13.239 15.1197C13.1028 15.4277 13.0788 15.7645 13.1702 16.0847C13.2615 16.4049 13.4639 16.6932 13.75 16.9107V18.4165C13.75 18.7038 13.8817 18.9794 14.1161 19.1825C14.3505 19.3857 14.6685 19.4998 15 19.4998C15.3315 19.4998 15.6495 19.3857 15.8839 19.1825C16.1183 18.9794 16.25 18.7038 16.25 18.4165V16.9107C16.5361 16.6932 16.7385 16.4049 16.8298 16.0847C16.9212 15.7645 16.8972 15.4277 16.761 15.1197C16.6248 14.8117 16.383 14.5472 16.0682 14.3619C15.7534 14.1766 15.3806 14.0793 15 14.0832ZM21.25 9.74984V7.58317C21.25 6.14658 20.5915 4.76883 19.4194 3.75301C18.2473 2.73719 16.6576 2.1665 15 2.1665C13.3424 2.1665 11.7527 2.73719 10.5806 3.75301C9.40848 4.76883 8.75 6.14658 8.75 7.58317V9.74984C7.75544 9.74984 6.80161 10.0922 6.09835 10.7017C5.39509 11.3112 5 12.1379 5 12.9998V20.5832C5 21.4451 5.39509 22.2718 6.09835 22.8813C6.80161 23.4908 7.75544 23.8332 8.75 23.8332H21.25C22.2446 23.8332 23.1984 23.4908 23.9016 22.8813C24.6049 22.2718 25 21.4451 25 20.5832V12.9998C25 12.1379 24.6049 11.3112 23.9016 10.7017C23.1984 10.0922 22.2446 9.74984 21.25 9.74984ZM11.25 7.58317C11.25 6.72122 11.6451 5.89457 12.3483 5.28507C13.0516 4.67558 14.0054 4.33317 15 4.33317C15.9946 4.33317 16.9484 4.67558 17.6516 5.28507C18.3549 5.89457 18.75 6.72122 18.75 7.58317V9.74984H11.25V7.58317ZM22.5 20.5832C22.5 20.8705 22.3683 21.146 22.1339 21.3492C21.8995 21.5524 21.5815 21.6665 21.25 21.6665H8.75C8.41848 21.6665 8.10054 21.5524 7.86612 21.3492C7.6317 21.146 7.5 20.8705 7.5 20.5832V12.9998C7.5 12.7125 7.6317 12.437 7.86612 12.2338C8.10054 12.0306 8.41848 11.9165 8.75 11.9165H21.25C21.5815 11.9165 21.8995 12.0306 22.1339 12.2338C22.3683 12.437 22.5 12.7125 22.5 12.9998V20.5832Z" fill="#009A3F"/>
</svg>
